{"title":"Piranha [2010] Hindi 1Cd Dvd-Rip [~TDT~]@Mastitorrents","uid":5961730,"size":751492576,"categoryP":"video","categoryS":"movies","magnet":"?xt=urn:btih:2050d8af9c3090c3e3c5f4c9ed8e598826bffadc&amp;dn=Piranha+%5B2010%5D+Hindi+1Cd+Dvd-Rip+%5B%7ETDT%7E%5D%40Mastitorrents&amp;tr=udp%3A%2F%2Ftracker.openbittorrent.com%3A80&amp;tr=udp%3A%2F%2Fopen.demonii.com%3A1337&amp;tr=udp%3A%2F%2Ftracker.coppersurfer.tk%3A6969&amp;tr=udp%3A%2F%2Fexodus.desync.com%3A6969","seeders":0,"leechers":1,"uploader":"amanrulz","files":2,"time":1289978743,"description":"mastitorrents.com\n &lt;a href=&quot;\nhttp://mastitorrents.com/forums/index.php&quot; rel=&quot;nofollow&quot; target=&quot;_NEW&quot;&gt;\nhttp://mastitorrents.com/forums/index.php&lt;/a&gt;\n\nGeneral\nComplete name                    : D:\\MOVIES\\DUBBED\\Piranha [2010] 1Cd Dvd-Rip_By [~SAIF~] [~TDT~]\\Piranha [2010] 1Cd Dvd-Rip_By [~SAIF~] [~TDT~].avi\nFormat                           : AVI\nFormat/Info                      : Audio Video Interleave\nFile size                        : 708 MiB\nDuration                         : 1h 24mn\nOverall bit rate                 : 1 167 Kbps\nWriting library                  : VirtualDub build 32817/release\n\nVideo\nID                               : 0\nFormat                           : MPEG-4 Visual\nFormat profile                   : Advanced Simple@L5\nFormat settings, BVOP            : Yes\nFormat settings, QPel            : No\nFormat settings, GMC             : No warppoints\nFormat settings, Matrix          : Default (H.263)\nCodec ID                         : XVID\nCodec ID/Hint                    : XviD\nDuration                         : 1h 24mn\nBit rate                         : 1 008 Kbps\nWidth                            : 624 pixels\nHeight                           : 272 pixels\nDisplay aspect ratio             : 2.25:1\nFrame rate                       : 25.000 fps\nColor space                      : YUV\nChroma subsampling      \n         : 4:2:0\nBit depth                        : 8 bits\nScan type                        : Progressive\nBits/(Pixel*Frame)               : 0.238\nStream size                      : 612 MiB (86%)\nWriting library                  : XviD 1.2.1 (UTC 2008-12-04)\n\nAudio\nID                               : 1\nFormat                           : MPEG Audio\nFormat version                   : Version 1\nFormat profile                   : Layer 3\nCodec ID                         : 55\nCodec ID/Hint                    : MP3\nDuration                         : 1h 19mn\nBit rate mode                    : Constant\nBit rate                         : 160 Kbps\nChannel(s)                       : 2 channels\nSampling rate                    : 48.0 KHz\nStream size                      : 90.4 MiB (13%)\nAlignment                        : Split accross interleaves\nInterleave, duration             : 43 ms (1.07 video frame) \nInterleave, preload duration     : 500 ms\n","torrent":{"xt":"urn:btih:2050d8af9c3090c3e3c5f4c9ed8e598826bffadc","amp;dn":"Piranha+%5B2010%5D+Hindi+1Cd+Dvd-Rip+%5B%7ETDT%7E%5D%40Mastitorrents","amp;tr":["udp%3A%2F%2Ftracker.openbittorrent.com%3A80","udp%3A%2F%2Fopen.demonii.com%3A1337","udp%3A%2F%2Ftracker.coppersurfer.tk%3A6969","udp%3A%2F%2Fexodus.desync.com%3A6969"],"infoHash":"2050d8af9c3090c3e3c5f4c9ed8e598826bffadc","infoHashBuffer":{"type":"Buffer","data":[32,80,216,175,156,48,144,195,227,197,244,201,237,142,89,136,38,191,250,220]},"announce":[],"urlList":[]}}